<svg width="25" height="26" viewBox="0 0 25 26" fill="none" xmlns="http://www.w3.org/2000/svg">
<path d="M18.4896 3.47949C19.3875 3.47949 20.2485 3.83617 20.8834 4.47106C21.5183 5.10595 21.875 5.96704 21.875 6.86491V14.0305C21.8747 14.6518 21.6278 15.2475 21.1885 15.6868L15.3333 21.543C15.1157 21.7607 14.8573 21.9333 14.573 22.0511C14.2886 22.1689 13.9838 22.2295 13.676 22.2295H6.51042C5.61255 22.2295 4.75145 21.8728 4.11657 21.2379C3.48168 20.603 3.125 19.7419 3.125 18.8441V6.86491C3.125 5.96704 3.48168 5.10595 4.11657 4.47106C4.75145 3.83617 5.61255 3.47949 6.51042 3.47949H18.4896ZM18.4896 5.04199H6.51042C6.02695 5.04199 5.56328 5.23405 5.22142 5.57591C4.87956 5.91778 4.6875 6.38144 4.6875 6.86491V18.8441C4.6875 19.8503 5.50417 20.667 6.51042 20.667H13.5417V17.2816C13.5416 16.4168 13.8725 15.5849 14.4663 14.9563C15.0602 14.3278 15.8721 13.9503 16.7354 13.9014L16.9271 13.8962H20.3125V6.86491C20.3125 6.38144 20.1204 5.91778 19.7786 5.57591C19.4367 5.23405 18.9731 5.04199 18.4896 5.04199ZM19.2073 15.4587H16.9271C16.4694 15.4587 16.0285 15.6309 15.692 15.941C15.3554 16.2511 15.1478 16.6765 15.1104 17.1326L15.1042 17.2816V19.5618L19.2073 15.4587Z" fill="black"/>
</svg>
