<svg width="19" height="17" viewBox="0 0 19 17" fill="none" xmlns="http://www.w3.org/2000/svg">
<path fill-rule="evenodd" clip-rule="evenodd" d="M5.90234 9.04359C5.90234 8.11077 6.27291 7.21615 6.93252 6.55654C7.59212 5.89693 8.48674 5.52637 9.41957 5.52637C10.3524 5.52637 11.247 5.89693 11.9066 6.55654C12.5662 7.21615 12.9368 8.11077 12.9368 9.04359C12.9368 9.97642 12.5662 10.871 11.9066 11.5306C11.247 12.1903 10.3524 12.5608 9.41957 12.5608C8.48674 12.5608 7.59212 12.1903 6.93252 11.5306C6.27291 10.871 5.90234 9.97642 5.90234 9.04359ZM9.41957 6.93326C8.85987 6.93326 8.3231 7.1556 7.92734 7.55136C7.53157 7.94712 7.30923 8.4839 7.30923 9.04359C7.30923 9.60329 7.53157 10.1401 7.92734 10.5358C8.3231 10.9316 8.85987 11.1539 9.41957 11.1539C9.97926 11.1539 10.516 10.9316 10.9118 10.5358C11.3076 10.1401 11.5299 9.60329 11.5299 9.04359C11.5299 8.4839 11.3076 7.94712 10.9118 7.55136C10.516 7.1556 9.97926 6.93326 9.41957 6.93326Z" fill="black"/>
<path fill-rule="evenodd" clip-rule="evenodd" d="M8.12085 2.2438C7.88774 2.24356 7.65687 2.28929 7.44146 2.37838C7.22605 2.46747 7.03033 2.59818 6.8655 2.76301C6.70066 2.92784 6.56996 3.12356 6.48087 3.33898C6.39178 3.55439 6.34604 3.78525 6.34629 4.01836C6.34613 4.31961 6.23272 4.60978 6.02857 4.8313C5.82442 5.05283 5.54446 5.18951 5.24423 5.21422L3.15265 5.38304C2.95263 5.39915 2.76346 5.48061 2.61431 5.61485C2.46515 5.74909 2.36429 5.92866 2.32727 6.12588C1.90635 8.34866 1.87525 10.6277 2.23536 12.8611L2.32634 13.4276C2.41263 13.9623 2.85251 14.3703 3.39276 14.4143L5.21515 14.5625C8.01307 14.7896 10.8248 14.7896 13.6227 14.5625L15.4442 14.4143C15.7069 14.3931 15.9548 14.2843 16.1484 14.1054C16.3419 13.9265 16.4698 13.6879 16.5115 13.4276L16.6025 12.8611C16.9623 10.6276 16.9309 8.3486 16.5097 6.12588C16.4725 5.92883 16.3715 5.74947 16.2224 5.61541C16.0732 5.48136 15.8842 5.40004 15.6843 5.38398L13.5936 5.21422C13.2934 5.18951 13.0135 5.05283 12.8093 4.8313C12.6052 4.60978 12.4917 4.31961 12.4916 4.01836C12.4918 3.78525 12.4461 3.55439 12.357 3.33898C12.2679 3.12356 12.1372 2.92784 11.9724 2.76301C11.8075 2.59818 11.6118 2.46747 11.3964 2.37838C11.181 2.28929 10.9501 2.24356 10.717 2.2438H8.12085ZM4.94503 3.82702C4.994 3.0179 5.3499 2.25796 5.94008 1.70229C6.53026 1.14662 7.31024 0.837106 8.12085 0.836914H10.717C12.41 0.836914 13.7934 2.15939 13.8928 3.82702L15.7987 3.98178C16.3057 4.02271 16.7853 4.22911 17.1635 4.56924C17.5418 4.90936 17.7978 5.36435 17.8922 5.8642C18.3433 8.24653 18.3771 10.6898 17.9916 13.0844L17.9006 13.6518C17.8087 14.2226 17.528 14.7461 17.1034 15.1386C16.6788 15.531 16.1349 15.7697 15.5586 15.8165L13.7372 15.9647C10.8631 16.1976 7.97482 16.1976 5.10072 15.9647L3.27927 15.8165C2.70299 15.7697 2.15905 15.531 1.73447 15.1386C1.30988 14.7461 1.02918 14.2226 0.937267 13.6518L0.846288 13.0844C0.460594 10.6901 0.494236 8.24696 0.945708 5.8642C1.04023 5.36442 1.29628 4.90951 1.6745 4.56942C2.05272 4.22932 2.53218 4.02286 3.03916 3.98178L4.94503 3.82702Z" fill="black"/>
</svg>
