<svg width="25" height="25" viewBox="0 0 25 25" fill="none" xmlns="http://www.w3.org/2000/svg">
<path d="M22.3038 5.38167L19.3038 2.38167C19.1992 2.27679 19.075 2.19357 18.9383 2.13679C18.8016 2.08001 18.6549 2.05078 18.5069 2.05078C18.3588 2.05078 18.2122 2.08001 18.0755 2.13679C17.9387 2.19357 17.8145 2.27679 17.71 2.38167L8.71 11.3817C8.49976 11.5931 8.38208 11.8794 8.38281 12.1776V15.1776C8.38281 15.476 8.50134 15.7621 8.71232 15.9731C8.9233 16.1841 9.20944 16.3026 9.50781 16.3026H12.5078C12.6556 16.3027 12.8019 16.2737 12.9385 16.2173C13.0751 16.1608 13.1992 16.078 13.3038 15.9735L22.3038 6.97354C22.4083 6.86906 22.4913 6.74499 22.5479 6.60841C22.6046 6.47184 22.6337 6.32545 22.6337 6.17761C22.6337 6.02976 22.6046 5.88337 22.5479 5.7468C22.4913 5.61023 22.4083 5.48615 22.3038 5.38167ZM18.5078 4.77136L19.9141 6.17761L18.8828 7.20886L17.4766 5.80261L18.5078 4.77136ZM12.0391 14.0526H10.6328V12.6464L15.8828 7.39636L17.2891 8.80261L12.0391 14.0526ZM21.8828 13.356V19.6776C21.8828 20.1749 21.6853 20.6518 21.3336 21.0034C20.982 21.3551 20.5051 21.5526 20.0078 21.5526H5.00781C4.51053 21.5526 4.03362 21.3551 3.68199 21.0034C3.33036 20.6518 3.13281 20.1749 3.13281 19.6776V4.67761C3.13281 4.18033 3.33036 3.70341 3.68199 3.35178C4.03362 3.00015 4.51053 2.80261 5.00781 2.80261H11.3294C11.6277 2.80261 11.9139 2.92113 12.1249 3.13211C12.3358 3.34309 12.4544 3.62924 12.4544 3.92761C12.4544 4.22597 12.3358 4.51212 12.1249 4.7231C11.9139 4.93408 11.6277 5.05261 11.3294 5.05261H5.38281V19.3026H19.6328V13.356C19.6328 13.0577 19.7513 12.7715 19.9623 12.5605C20.1733 12.3496 20.4594 12.231 20.7578 12.231C21.0562 12.231 21.3423 12.3496 21.5533 12.5605C21.7643 12.7715 21.8828 13.0577 21.8828 13.356Z" fill="#067DFD"/>
</svg>
