<svg width="25" height="26" viewBox="0 0 25 26" fill="none" xmlns="http://www.w3.org/2000/svg">
<path d="M14.2054 4.47641C14.0358 4.17321 13.7885 3.92072 13.4888 3.74497C13.1892 3.56921 12.8481 3.47656 12.5007 3.47656C12.1533 3.47656 11.8122 3.56921 11.5126 3.74497C11.2129 3.92072 10.9656 4.17321 10.796 4.47641L3.36945 17.7608C3.20332 18.0579 3.11774 18.3933 3.12119 18.7337C3.12465 19.0741 3.21701 19.4077 3.38913 19.7014C3.56124 19.9951 3.80714 20.2387 4.10243 20.4081C4.39772 20.5775 4.73215 20.6667 5.07257 20.667H19.9226C20.2631 20.667 20.5978 20.578 20.8933 20.4087C21.1888 20.2394 21.4349 19.9958 21.6072 19.7021C21.7795 19.4083 21.872 19.0746 21.8755 18.7341C21.879 18.3936 21.7934 18.058 21.6273 17.7608L14.2054 4.47641ZM13.671 16.3702C13.671 16.681 13.5475 16.979 13.3278 17.1988C13.108 17.4186 12.8099 17.542 12.4991 17.542C12.1883 17.542 11.8903 17.4186 11.6705 17.1988C11.4507 16.979 11.3273 16.681 11.3273 16.3702C11.3273 16.0594 11.4507 15.7613 11.6705 15.5415C11.8903 15.3218 12.1883 15.1983 12.4991 15.1983C12.8099 15.1983 13.108 15.3218 13.3278 15.5415C13.5475 15.7613 13.671 16.0594 13.671 16.3702ZM11.7179 12.8545V8.94829C11.7179 8.74109 11.8002 8.54237 11.9467 8.39586C12.0932 8.24935 12.2919 8.16704 12.4991 8.16704C12.7063 8.16704 12.905 8.24935 13.0516 8.39586C13.1981 8.54237 13.2804 8.74109 13.2804 8.94829V12.8545C13.2804 13.0617 13.1981 13.2605 13.0516 13.407C12.905 13.5535 12.7063 13.6358 12.4991 13.6358C12.2919 13.6358 12.0932 13.5535 11.9467 13.407C11.8002 13.2605 11.7179 13.0617 11.7179 12.8545Z" fill="#EF2B2A"/>
</svg>
