<svg width="30" height="31" viewBox="0 0 30 31" fill="none" xmlns="http://www.w3.org/2000/svg">
<path d="M19.7148 3.79883C19.7548 3.79891 19.7932 3.8153 19.8213 3.84375L21.248 5.29492C21.3051 5.3532 21.3051 5.44657 21.248 5.50488L11.3633 15.5498L21.248 25.5957C21.3054 25.654 21.3053 25.7483 21.248 25.8066L19.8213 27.2559C19.7932 27.2844 19.7549 27.3007 19.7148 27.3008C19.6746 27.3008 19.6356 27.2845 19.6074 27.2559L9.14551 16.624L9.14453 16.623C8.86564 16.3353 8.70898 15.9505 8.70898 15.5498C8.70904 15.1492 8.86564 14.7642 9.14453 14.4766L9.14551 14.4756L19.6074 3.84375L19.6562 3.81055C19.6745 3.80288 19.6947 3.79882 19.7148 3.79883Z" fill="black" stroke="#9E9E9E" stroke-width="0.3" stroke-linejoin="round"/>
</svg>
