<svg width="84" height="89" viewBox="0 0 84 89" fill="none" xmlns="http://www.w3.org/2000/svg">
<path d="M59.6763 41.901L42.4169 60.9446L3.1659 21.6936L18.2111 19.1374L21.3174 3.54213L59.6763 41.901Z" fill="#067DFD"/>
<path d="M15.8095 16.1858L17.8298 4.84163C18.1201 3.20607 19.1643 2.42089 20.9623 2.48609C22.7584 2.54936 24.4914 3.41597 26.1614 5.08592L59.3168 38.2414C60.6524 39.5769 61.4908 40.9671 61.8319 42.4119C62.1731 43.8566 61.9335 44.9911 61.1131 45.8154L45.4372 61.4912C44.6149 62.3136 43.4804 62.5532 42.0337 62.2101C40.5871 61.867 39.1975 61.028 37.865 59.6931L4.70958 26.5377C3.03963 24.8677 2.17302 23.1347 2.10975 21.3386C2.04455 19.5406 2.82973 18.4964 4.4653 18.2061L15.8095 16.1858ZM19.0653 19.4416L6.50116 21.6613C5.87436 21.7663 5.58025 22.1706 5.61885 22.8742C5.65938 23.5797 5.99566 24.2485 6.62769 24.8805L39.6498 57.9026C40.0963 58.3491 40.6204 58.6444 41.2223 58.7886C41.8241 58.9329 42.2633 58.8667 42.5398 58.5902L58.2139 42.9161C58.4892 42.6408 58.5563 42.2026 58.4152 41.6015C58.2741 41.0004 57.9788 40.4762 57.5292 40.029L24.5013 7.00113C23.8692 6.3691 23.2014 6.03378 22.4978 5.99519C21.7942 5.95659 21.39 6.25069 21.285 6.87749L19.0653 19.4416ZM50.3768 50.7532L59.3151 41.8149L41.4386 59.6914L50.3768 50.7532Z" fill="#067DFD"/>
<rect x="64.3828" y="1.1283" width="28.0467" height="27.209" rx="1" transform="rotate(46.3682 64.3828 1.1283)" fill="#329CFF"/>
<path d="M66.2954 80.3503C66.2954 77.8574 66.1214 76.0397 65.4599 75.2088C65.1466 74.776 64.6592 74.551 64.0848 74.551C63.5278 74.551 63.0404 74.776 62.7097 75.2088C62.0831 76.0397 61.8916 77.8574 61.8916 80.3503C61.8916 82.8431 62.0831 84.6608 62.7097 85.509C63.0404 85.9072 63.5278 86.1322 64.0848 86.1322C64.6592 86.1322 65.1466 85.9072 65.4599 85.509C66.1214 84.6608 66.2954 82.8431 66.2954 80.3503ZM60.0117 80.3503C60.0117 77.5112 60.2902 75.3819 61.2998 74.1528C61.9438 73.3565 62.9186 72.9237 64.0848 72.9237C65.2685 72.9237 66.2258 73.3565 66.8872 74.1528C67.7576 75.2088 68.0883 76.9226 68.1579 79.1731H70.9081V72.9237H72.8054V88.6251H70.9081V80.8004H68.1753C68.1405 83.4144 67.8446 85.3879 66.8872 86.5477C66.2258 87.344 65.2685 87.7422 64.0848 87.7422C62.9186 87.7422 61.9438 87.344 61.2998 86.5477C60.2902 85.3186 60.0117 83.1893 60.0117 80.3503Z" fill="black"/>
<path d="M54.3966 79.108C53.0616 79.4155 51.2932 79.518 49.4207 79.518H43.9594V77.8951H49.4554C51.2412 77.8951 53.0616 77.8268 54.3966 77.5705V74.5637H43.9594V72.9237H56.2864V78.6639C56.2864 80.5602 56.1304 82.4052 55.8703 83.6694H54.0152C54.2579 82.4223 54.3966 80.6285 54.3966 79.108ZM43.1445 87.462V85.8561H47.8257V81.1752H49.7155V85.8561H57.1013V87.462H43.1445Z" fill="black"/>
<path d="M31.7827 73.0252V74.9202C31.7827 77.5766 33.3256 78.9471 35.3828 79.5393V81.1635C33.3611 80.7575 31.6763 79.6746 30.8428 78.3887C30.0803 79.7254 28.3778 80.8759 26.2852 81.3497V79.7254C28.3955 79.0824 29.8675 77.5089 29.8675 74.9202V73.0252H31.7827ZM39.8695 81.6711H37.9365V77.289H34.4251V75.7154H37.9365V72.9237H39.8695V81.6711ZM33.9286 88.6251C32.0842 88.6251 30.2576 88.3882 29.0339 87.6607C28.1827 87.1531 27.633 86.3917 27.633 85.3596C27.633 84.3275 28.1827 83.5661 29.0339 83.0585C30.2576 82.3479 32.0842 82.0941 33.9286 82.0941C35.7729 82.0941 37.6173 82.3479 38.8232 83.0585C39.6744 83.5661 40.2419 84.3275 40.2419 85.3596C40.2419 86.3917 39.6744 87.1531 38.8232 87.6607C37.6173 88.3882 35.7729 88.6251 33.9286 88.6251ZM33.9286 83.6676C32.4744 83.6676 31.0556 83.8368 30.2399 84.3106C29.8143 84.5813 29.5482 84.9197 29.5482 85.3596C29.5482 85.7995 29.8143 86.1379 30.2399 86.3917C31.0556 86.8654 32.4744 87.0516 33.9286 87.0516C35.4005 87.0516 36.8192 86.8654 37.6173 86.3917C38.0429 86.1379 38.3089 85.7995 38.3089 85.3596C38.3089 84.9197 38.0429 84.5813 37.6173 84.3106C36.8192 83.8368 35.4005 83.6676 33.9286 83.6676Z" fill="black"/>
<path d="M16.0203 74.7235H10.3633V73.1123H17.9059V74.2264C17.9059 79.1117 14.9477 81.1344 10 81.6486V80.0202C13.8578 79.6259 16.0203 77.9118 16.0203 74.7235ZM22.8363 72.9237V76.4205H25.1198V78.0489H22.8363V81.5972H20.9506V72.9237H22.8363ZM11.2629 88.6251V82.5914H22.8363V88.6251H11.2629ZM20.9506 84.1855H13.1312V87.0481H20.9506V84.1855Z" fill="black"/>
</svg>
