<svg width="48" height="37" viewBox="0 0 48 37" fill="none" xmlns="http://www.w3.org/2000/svg">
<g id="Group 361">
<g id="Group 360">
<path id="Rectangle 1473" d="M33.8995 23.5875L24.096 34.4045L1.80101 12.1095L10.3469 10.6575L12.1113 1.79926L33.8995 23.5875Z" fill="#067DFD"/>
<path id="Vector" d="M8.98159 8.98089L10.1291 2.53728C10.294 1.60826 10.8872 1.16227 11.9085 1.19931C12.9287 1.23524 13.913 1.72749 14.8616 2.67604L33.6943 21.5087C34.4529 22.2673 34.9291 23.057 35.1229 23.8776C35.3167 24.6982 35.1806 25.3426 34.7146 25.8108L25.8105 34.7149C25.3434 35.182 24.699 35.3181 23.8773 35.1232C23.0555 34.9283 22.2663 34.4518 21.5094 33.6936L2.67674 14.8609C1.72819 13.9123 1.23594 12.928 1.20001 11.9078C1.16297 10.8865 1.60896 10.2933 2.53798 10.1284L8.98159 8.98089ZM10.8309 10.8302L3.69437 12.0911C3.33835 12.1507 3.17129 12.3803 3.19321 12.78C3.21623 13.1807 3.40725 13.5606 3.76625 13.9196L22.5232 32.6765C22.7768 32.9301 23.0745 33.0979 23.4164 33.1798C23.7582 33.2617 24.0077 33.2241 24.1647 33.0671L33.0678 24.164C33.2242 24.0077 33.2623 23.7587 33.1821 23.4173C33.102 23.0759 32.9342 22.7781 32.6789 22.5241L13.9186 3.7639C13.5596 3.4049 13.1803 3.21443 12.7807 3.19251C12.381 3.17059 12.1514 3.33764 12.0918 3.69367L10.8309 10.8302ZM28.6163 28.6156L33.6933 23.5385L23.5392 33.6926L28.6163 28.6156Z" fill="#067DFD"/>
</g>
<rect id="Rectangle 1500" x="36.5723" y="0.428711" width="15.9308" height="15.455" rx="1" transform="rotate(46.3682 36.5723 0.428711)" fill="#329CFF"/>
</g>
</svg>
