<svg width="89" height="23" viewBox="0 0 89 23" fill="none" xmlns="http://www.w3.org/2000/svg">
<path d="M79.041 10.337C79.041 6.88102 78.801 4.36102 77.889 3.20902C77.457 2.60902 76.785 2.29702 75.993 2.29702C75.225 2.29702 74.5529 2.60902 74.0969 3.20902C73.2329 4.36102 72.9689 6.88102 72.9689 10.337C72.9689 13.793 73.2329 16.313 74.0969 17.489C74.5529 18.041 75.225 18.353 75.993 18.353C76.785 18.353 77.457 18.041 77.889 17.489C78.801 16.313 79.041 13.793 79.041 10.337ZM70.377 10.337C70.377 6.40102 70.761 3.44902 72.153 1.74502C73.041 0.641016 74.3849 0.0410156 75.993 0.0410156C77.625 0.0410156 78.9449 0.641016 79.8569 1.74502C81.0569 3.20902 81.5129 5.58502 81.6089 8.70502H85.401V0.0410156H88.017V21.809H85.401V10.961H81.6329C81.5849 14.585 81.1769 17.321 79.8569 18.929C78.9449 20.033 77.625 20.585 75.993 20.585C74.3849 20.585 73.041 20.033 72.153 18.929C70.761 17.225 70.377 14.273 70.377 10.337Z" fill="black"/>
<path d="M62.4354 9.1128C60.5874 9.5448 58.1394 9.6888 55.5474 9.6888H47.9874V7.4088H55.5954C58.0674 7.4088 60.5874 7.3128 62.4354 6.9528V2.7288H47.9874V0.424805H65.0514V8.4888C65.0514 11.1528 64.8354 13.7448 64.4754 15.5208H61.9074C62.2434 13.7688 62.4354 11.2488 62.4354 9.1128ZM46.8594 20.8488V18.5928H53.3394V12.0168H55.9554V18.5928H66.1794V20.8488H46.8594Z" fill="black"/>
<path d="M31.0435 0.185015V2.87302C31.0435 6.64102 33.1315 8.58502 35.9155 9.42502V11.729C33.1795 11.153 30.8995 9.61702 29.7715 7.79302C28.7395 9.68902 26.4355 11.321 23.6035 11.993V9.68902C26.4595 8.77702 28.4515 6.54502 28.4515 2.87302V0.185015H31.0435ZM41.9875 12.449H39.3715V6.23302H34.6195V4.00102H39.3715V0.0410156H41.9875V12.449ZM33.9475 22.313C31.4515 22.313 28.9795 21.977 27.3235 20.945C26.1715 20.225 25.4275 19.145 25.4275 17.681C25.4275 16.217 26.1715 15.137 27.3235 14.417C28.9795 13.409 31.4515 13.049 33.9475 13.049C36.4435 13.049 38.9395 13.409 40.5715 14.417C41.7235 15.137 42.4915 16.217 42.4915 17.681C42.4915 19.145 41.7235 20.225 40.5715 20.945C38.9395 21.977 36.4435 22.313 33.9475 22.313ZM33.9475 15.281C31.9795 15.281 30.0595 15.521 28.9555 16.193C28.3795 16.577 28.0195 17.057 28.0195 17.681C28.0195 18.305 28.3795 18.785 28.9555 19.145C30.0595 19.817 31.9795 20.081 33.9475 20.081C35.9395 20.081 37.8595 19.817 38.9395 19.145C39.5155 18.785 39.8755 18.305 39.8755 17.681C39.8755 17.057 39.5155 16.577 38.9395 16.193C37.8595 15.521 35.9395 15.281 33.9475 15.281Z" fill="black"/>
<path d="M8.91645 2.56102H1.06845V0.305017H11.5325V1.86502C11.5325 8.70502 7.42845 11.537 0.564453 12.257V9.97702C5.91645 9.42502 8.91645 7.02502 8.91645 2.56102ZM18.3725 0.0410156V4.93702H21.5405V7.21702H18.3725V12.185H15.7565V0.0410156H18.3725ZM2.31645 22.025V13.577H18.3725V22.025H2.31645ZM15.7565 15.809H4.90845V19.817H15.7565V15.809Z" fill="black"/>
</svg>
